<mxfile host="app.diagrams.net" modified="2020-08-23T06:15:38.246Z" agent="5.0 (Macintosh; Intel Mac OS X 10_15_0) AppleWebKit/537.36 (KHTML, like Gecko) Chrome/84.0.4147.135 Safari/537.36" etag="hU4ZShZRU7wXN3F2McTb" version="13.6.4" type="github">
  <diagram id="s-RW1Mstr-95ZBeLHmGS" name="Page-1">
    <mxGraphModel dx="1796" dy="591" grid="1" gridSize="10" guides="1" tooltips="1" connect="1" arrows="1" fold="1" page="1" pageScale="1" pageWidth="850" pageHeight="1100" math="0" shadow="0">
      <root>
        <mxCell id="0" />
        <mxCell id="1" parent="0" />
        <mxCell id="7BR2_aaGMWE1Ctq6u14p-27" value="" style="rounded=0;whiteSpace=wrap;html=1;strokeColor=#000000;" vertex="1" parent="1">
          <mxGeometry x="-525" y="128.5" width="275" height="360" as="geometry" />
        </mxCell>
        <mxCell id="7BR2_aaGMWE1Ctq6u14p-26" value="" style="rounded=0;whiteSpace=wrap;html=1;strokeColor=#000000;" vertex="1" parent="1">
          <mxGeometry x="-800" y="128.5" width="275" height="360" as="geometry" />
        </mxCell>
        <mxCell id="dn0NIBnzIPIcyW35OSL4-3" value="" style="rounded=0;whiteSpace=wrap;html=1;fillColor=#f5f5f5;strokeColor=#666666;fontColor=#333333;" parent="1" vertex="1">
          <mxGeometry x="-190" y="90" width="1010" height="590" as="geometry" />
        </mxCell>
        <mxCell id="dn0NIBnzIPIcyW35OSL4-4" value="" style="rounded=0;whiteSpace=wrap;html=1;strokeColor=#666666;fontColor=#333333;fillColor=#CCCCCC;" parent="1" vertex="1">
          <mxGeometry x="-190" y="90" width="1010" height="70" as="geometry" />
        </mxCell>
        <mxCell id="dn0NIBnzIPIcyW35OSL4-6" value="" style="rounded=0;whiteSpace=wrap;html=1;" parent="1" vertex="1">
          <mxGeometry x="-166" y="160" width="140" height="500" as="geometry" />
        </mxCell>
        <mxCell id="dn0NIBnzIPIcyW35OSL4-7" value="" style="rounded=0;whiteSpace=wrap;html=1;fillColor=#CCCCCC;" parent="1" vertex="1">
          <mxGeometry x="-166" y="160" width="140" height="50" as="geometry" />
        </mxCell>
        <mxCell id="dn0NIBnzIPIcyW35OSL4-15" value="" style="pointerEvents=1;shadow=0;dashed=0;html=1;strokeColor=none;labelPosition=center;verticalLabelPosition=bottom;verticalAlign=top;outlineConnect=0;align=center;shape=mxgraph.office.concepts.folder;fillColor=#000000;" parent="1" vertex="1">
          <mxGeometry x="638.44" y="110" width="31.12" height="28.01" as="geometry" />
        </mxCell>
        <mxCell id="dn0NIBnzIPIcyW35OSL4-17" value="" style="rounded=1;whiteSpace=wrap;html=1;arcSize=12;" parent="1" vertex="1">
          <mxGeometry x="-156" y="182" width="120" height="20" as="geometry" />
        </mxCell>
        <mxCell id="dn0NIBnzIPIcyW35OSL4-16" value="" style="triangle;whiteSpace=wrap;html=1;rotation=90;strokeColor=none;fillColor=#333333;" parent="1" vertex="1">
          <mxGeometry x="-49" y="188" width="6" height="8" as="geometry" />
        </mxCell>
        <mxCell id="dn0NIBnzIPIcyW35OSL4-19" value="" style="ellipse;whiteSpace=wrap;html=1;aspect=fixed;fillColor=#EA6B66;strokeColor=#999999;" parent="1" vertex="1">
          <mxGeometry x="-179" y="98" width="14" height="14" as="geometry" />
        </mxCell>
        <mxCell id="dn0NIBnzIPIcyW35OSL4-20" value="" style="ellipse;whiteSpace=wrap;html=1;aspect=fixed;fillColor=#FFD966;strokeColor=#999999;" parent="1" vertex="1">
          <mxGeometry x="-155" y="98" width="14" height="14" as="geometry" />
        </mxCell>
        <mxCell id="dn0NIBnzIPIcyW35OSL4-21" value="" style="ellipse;whiteSpace=wrap;html=1;aspect=fixed;fillColor=#97D077;strokeColor=#999999;" parent="1" vertex="1">
          <mxGeometry x="-131" y="98" width="14" height="14" as="geometry" />
        </mxCell>
        <mxCell id="dn0NIBnzIPIcyW35OSL4-25" value="" style="rounded=0;whiteSpace=wrap;html=1;fillColor=#B3B3B3;" parent="1" vertex="1">
          <mxGeometry x="-190" y="160" width="24" height="500" as="geometry" />
        </mxCell>
        <mxCell id="dn0NIBnzIPIcyW35OSL4-28" value="" style="rounded=0;whiteSpace=wrap;html=1;strokeColor=#000000;fillColor=#333333;" parent="1" vertex="1">
          <mxGeometry x="-27.1" y="160" width="676" height="20" as="geometry" />
        </mxCell>
        <mxCell id="dn0NIBnzIPIcyW35OSL4-29" value="" style="rounded=0;whiteSpace=wrap;html=1;fillColor=#dae8fc;" parent="1" vertex="1">
          <mxGeometry x="-27.1" y="180" width="676" height="480" as="geometry" />
        </mxCell>
        <mxCell id="dn0NIBnzIPIcyW35OSL4-30" value="" style="rounded=0;whiteSpace=wrap;html=1;fillColor=#e1d5e7;" parent="1" vertex="1">
          <mxGeometry x="648.9" y="503.66" width="170.55" height="156.34" as="geometry" />
        </mxCell>
        <mxCell id="dn0NIBnzIPIcyW35OSL4-31" value="" style="rounded=0;whiteSpace=wrap;html=1;fillColor=#dae8fc;" parent="1" vertex="1">
          <mxGeometry x="-156" y="220" width="117" height="70" as="geometry" />
        </mxCell>
        <mxCell id="dn0NIBnzIPIcyW35OSL4-32" value="" style="rounded=0;whiteSpace=wrap;html=1;fillColor=#dae8fc;" parent="1" vertex="1">
          <mxGeometry x="-155.5" y="310" width="117" height="70" as="geometry" />
        </mxCell>
        <mxCell id="dn0NIBnzIPIcyW35OSL4-33" value="" style="rounded=0;whiteSpace=wrap;html=1;fillColor=#dae8fc;" parent="1" vertex="1">
          <mxGeometry x="-156" y="400" width="117" height="70" as="geometry" />
        </mxCell>
        <mxCell id="dn0NIBnzIPIcyW35OSL4-34" value="" style="rounded=0;whiteSpace=wrap;html=1;fillColor=#dae8fc;" parent="1" vertex="1">
          <mxGeometry x="-156" y="490" width="117" height="70" as="geometry" />
        </mxCell>
        <mxCell id="dn0NIBnzIPIcyW35OSL4-35" value="" style="rounded=0;whiteSpace=wrap;html=1;fillColor=#dae8fc;" parent="1" vertex="1">
          <mxGeometry x="-156" y="580" width="117" height="70" as="geometry" />
        </mxCell>
        <mxCell id="dn0NIBnzIPIcyW35OSL4-38" value="" style="shape=image;html=1;verticalAlign=top;verticalLabelPosition=bottom;labelBackgroundColor=#ffffff;imageAspect=0;aspect=fixed;image=https://cdn1.iconfinder.com/data/icons/ios-11-glyphs/30/save-128.png;strokeColor=#000000;fillColor=#B3B3B3;" parent="1" vertex="1">
          <mxGeometry x="742" y="104.01" width="40" height="40" as="geometry" />
        </mxCell>
        <mxCell id="dn0NIBnzIPIcyW35OSL4-39" value="&lt;b&gt;Filebar&lt;/b&gt;" style="text;html=1;strokeColor=none;fillColor=none;align=center;verticalAlign=middle;whiteSpace=wrap;rounded=0;" parent="1" vertex="1">
          <mxGeometry x="-116" y="160" width="40" height="20" as="geometry" />
        </mxCell>
        <mxCell id="dn0NIBnzIPIcyW35OSL4-40" value="" style="rounded=1;whiteSpace=wrap;html=1;strokeColor=none;fillColor=#CCCCCC;arcSize=50;" parent="1" vertex="1">
          <mxGeometry x="-34" y="390" width="5.5" height="207" as="geometry" />
        </mxCell>
        <mxCell id="dn0NIBnzIPIcyW35OSL4-41" value="&lt;b&gt;001.JPG&lt;/b&gt;" style="rounded=0;whiteSpace=wrap;html=1;fillColor=#4D4D4D;" parent="1" vertex="1">
          <mxGeometry x="-20.1" y="160" width="154" height="20" as="geometry" />
        </mxCell>
        <mxCell id="dn0NIBnzIPIcyW35OSL4-42" value="&lt;b&gt;M_001.PNG&lt;/b&gt;" style="rounded=0;whiteSpace=wrap;html=1;fillColor=#4D4D4D;" parent="1" vertex="1">
          <mxGeometry x="143.9" y="160" width="110" height="20" as="geometry" />
        </mxCell>
        <mxCell id="dn0NIBnzIPIcyW35OSL4-43" value="&lt;b&gt;Mask View&lt;/b&gt;" style="rounded=0;whiteSpace=wrap;html=1;fillColor=#CCCCCC;" parent="1" vertex="1">
          <mxGeometry x="648.9" y="483.66" width="170.55" height="20" as="geometry" />
        </mxCell>
        <mxCell id="dn0NIBnzIPIcyW35OSL4-44" value="" style="shape=image;html=1;verticalAlign=top;verticalLabelPosition=bottom;labelBackgroundColor=#ffffff;imageAspect=0;aspect=fixed;image=https://cdn4.iconfinder.com/data/icons/ionicons/512/icon-close-circled-128.png;strokeColor=#000000;fillColor=#CCCCCC;" parent="1" vertex="1">
          <mxGeometry x="654.9" y="487.65999999999997" width="12" height="12" as="geometry" />
        </mxCell>
        <mxCell id="dn0NIBnzIPIcyW35OSL4-45" value="" style="shape=image;html=1;verticalAlign=top;verticalLabelPosition=bottom;labelBackgroundColor=#ffffff;imageAspect=0;aspect=fixed;image=https://cdn4.iconfinder.com/data/icons/ionicons/512/icon-close-circled-128.png;strokeColor=#000000;fillColor=#CCCCCC;" parent="1" vertex="1">
          <mxGeometry x="-16.1" y="164" width="12" height="12" as="geometry" />
        </mxCell>
        <mxCell id="dn0NIBnzIPIcyW35OSL4-46" value="" style="shape=image;html=1;verticalAlign=top;verticalLabelPosition=bottom;labelBackgroundColor=#ffffff;imageAspect=0;aspect=fixed;image=https://cdn4.iconfinder.com/data/icons/ionicons/512/icon-close-circled-128.png;strokeColor=#000000;fillColor=#CCCCCC;" parent="1" vertex="1">
          <mxGeometry x="146.9" y="164" width="12" height="12" as="geometry" />
        </mxCell>
        <mxCell id="dn0NIBnzIPIcyW35OSL4-51" value="" style="shape=image;html=1;verticalAlign=top;verticalLabelPosition=bottom;labelBackgroundColor=#ffffff;imageAspect=0;aspect=fixed;image=https://cdn4.iconfinder.com/data/icons/ionicons/512/icon-ios7-cog-128.png;strokeColor=#000000;strokeWidth=2;fillColor=#1A1A1A;" parent="1" vertex="1">
          <mxGeometry x="-89.99999999999999" y="104" width="40" height="40" as="geometry" />
        </mxCell>
        <mxCell id="dn0NIBnzIPIcyW35OSL4-55" value="&lt;b&gt;Labels&lt;/b&gt;" style="rounded=0;whiteSpace=wrap;html=1;fillColor=#CCCCCC;" parent="1" vertex="1">
          <mxGeometry x="648.9" y="160" width="170.55" height="20" as="geometry" />
        </mxCell>
        <mxCell id="dn0NIBnzIPIcyW35OSL4-56" value="" style="shape=image;html=1;verticalAlign=top;verticalLabelPosition=bottom;labelBackgroundColor=#ffffff;imageAspect=0;aspect=fixed;image=https://cdn4.iconfinder.com/data/icons/ionicons/512/icon-close-circled-128.png;strokeColor=#000000;fillColor=#CCCCCC;" parent="1" vertex="1">
          <mxGeometry x="654.9" y="163.99999999999994" width="12" height="12" as="geometry" />
        </mxCell>
        <mxCell id="dn0NIBnzIPIcyW35OSL4-57" value="" style="shape=image;html=1;verticalAlign=top;verticalLabelPosition=bottom;labelBackgroundColor=#ffffff;imageAspect=0;aspect=fixed;image=https://cdn4.iconfinder.com/data/icons/free-crystal-icons/128/Salt_crystal.png;strokeColor=#000000;strokeWidth=1;fillColor=#1A1A1A;gradientColor=none;" parent="1" vertex="1">
          <mxGeometry x="-187" y="170" width="18" height="18" as="geometry" />
        </mxCell>
        <mxCell id="dn0NIBnzIPIcyW35OSL4-61" value="" style="shape=image;html=1;verticalAlign=top;verticalLabelPosition=bottom;labelBackgroundColor=#ffffff;imageAspect=0;aspect=fixed;image=https://cdn1.iconfinder.com/data/icons/material-core/14/fullscreen-exit-128.png;strokeColor=#000000;strokeWidth=1;fillColor=#1A1A1A;gradientColor=none;" parent="1" vertex="1">
          <mxGeometry x="-184" y="196" width="12" height="12" as="geometry" />
        </mxCell>
        <mxCell id="dn0NIBnzIPIcyW35OSL4-62" value="" style="shape=mxgraph.signs.tech.crop;html=1;fillColor=#000000;strokeColor=none;verticalLabelPosition=bottom;verticalAlign=top;align=center;" parent="1" vertex="1">
          <mxGeometry x="-187" y="220" width="17" height="17" as="geometry" />
        </mxCell>
        <mxCell id="dn0NIBnzIPIcyW35OSL4-68" value="" style="rounded=0;whiteSpace=wrap;html=1;strokeWidth=1;fillColor=#f5f5f5;fontColor=#333333;" parent="1" vertex="1">
          <mxGeometry x="649.45" y="180" width="170.55" height="37" as="geometry" />
        </mxCell>
        <mxCell id="dn0NIBnzIPIcyW35OSL4-63" value="" style="rounded=1;whiteSpace=wrap;html=1;strokeWidth=1;fillColor=#EA6B66;" parent="1" vertex="1">
          <mxGeometry x="660" y="191.5" width="15.78" height="14" as="geometry" />
        </mxCell>
        <mxCell id="dn0NIBnzIPIcyW35OSL4-66" value="" style="shape=image;html=1;verticalAlign=top;verticalLabelPosition=bottom;labelBackgroundColor=#ffffff;imageAspect=0;aspect=fixed;image=https://cdn1.iconfinder.com/data/icons/ios-11-glyphs/30/visible-128.png;strokeColor=#000000;strokeWidth=1;fillColor=#000000;gradientColor=none;" parent="1" vertex="1">
          <mxGeometry x="798" y="193" width="14" height="14" as="geometry" />
        </mxCell>
        <mxCell id="dn0NIBnzIPIcyW35OSL4-67" value="&lt;b&gt;Label 1&lt;/b&gt;" style="text;html=1;strokeColor=none;fillColor=none;align=center;verticalAlign=middle;whiteSpace=wrap;rounded=0;" parent="1" vertex="1">
          <mxGeometry x="675.78" y="188.5" width="60" height="20" as="geometry" />
        </mxCell>
        <mxCell id="dn0NIBnzIPIcyW35OSL4-69" value="" style="rounded=0;whiteSpace=wrap;html=1;strokeWidth=1;fontColor=#333333;fillColor=#E8E8E8;" parent="1" vertex="1">
          <mxGeometry x="649.45" y="217" width="170.55" height="37" as="geometry" />
        </mxCell>
        <mxCell id="dn0NIBnzIPIcyW35OSL4-70" value="" style="rounded=1;whiteSpace=wrap;html=1;strokeWidth=1;fillColor=#FFD966;" parent="1" vertex="1">
          <mxGeometry x="660" y="228.5" width="15.78" height="14" as="geometry" />
        </mxCell>
        <mxCell id="dn0NIBnzIPIcyW35OSL4-71" value="" style="shape=image;html=1;verticalAlign=top;verticalLabelPosition=bottom;labelBackgroundColor=#ffffff;imageAspect=0;aspect=fixed;image=https://cdn1.iconfinder.com/data/icons/ios-11-glyphs/30/visible-128.png;strokeColor=#000000;strokeWidth=1;fillColor=#000000;gradientColor=none;" parent="1" vertex="1">
          <mxGeometry x="798" y="230" width="14" height="14" as="geometry" />
        </mxCell>
        <mxCell id="dn0NIBnzIPIcyW35OSL4-72" value="&lt;b&gt;Label 2&lt;/b&gt;" style="text;html=1;strokeColor=none;fillColor=none;align=center;verticalAlign=middle;whiteSpace=wrap;rounded=0;" parent="1" vertex="1">
          <mxGeometry x="675.78" y="225.5" width="60" height="20" as="geometry" />
        </mxCell>
        <mxCell id="dn0NIBnzIPIcyW35OSL4-73" value="" style="rounded=0;whiteSpace=wrap;html=1;strokeWidth=1;fillColor=#f5f5f5;fontColor=#333333;" parent="1" vertex="1">
          <mxGeometry x="649.45" y="254" width="170.55" height="37" as="geometry" />
        </mxCell>
        <mxCell id="dn0NIBnzIPIcyW35OSL4-74" value="" style="rounded=1;whiteSpace=wrap;html=1;strokeWidth=1;fillColor=#97D077;" parent="1" vertex="1">
          <mxGeometry x="660" y="265.5" width="15.78" height="14" as="geometry" />
        </mxCell>
        <mxCell id="dn0NIBnzIPIcyW35OSL4-75" value="" style="shape=image;html=1;verticalAlign=top;verticalLabelPosition=bottom;labelBackgroundColor=#ffffff;imageAspect=0;aspect=fixed;image=https://cdn1.iconfinder.com/data/icons/ios-11-glyphs/30/visible-128.png;strokeColor=#000000;strokeWidth=1;fillColor=#000000;gradientColor=none;" parent="1" vertex="1">
          <mxGeometry x="798" y="267" width="14" height="14" as="geometry" />
        </mxCell>
        <mxCell id="dn0NIBnzIPIcyW35OSL4-76" value="&lt;b&gt;Label 3&lt;/b&gt;" style="text;html=1;strokeColor=none;fillColor=none;align=center;verticalAlign=middle;whiteSpace=wrap;rounded=0;" parent="1" vertex="1">
          <mxGeometry x="675.78" y="262.5" width="60" height="20" as="geometry" />
        </mxCell>
        <mxCell id="dn0NIBnzIPIcyW35OSL4-77" value="" style="rounded=0;whiteSpace=wrap;html=1;strokeWidth=1;fontColor=#333333;fillColor=#E8E8E8;" parent="1" vertex="1">
          <mxGeometry x="649.45" y="291" width="170.55" height="37" as="geometry" />
        </mxCell>
        <mxCell id="dn0NIBnzIPIcyW35OSL4-78" value="" style="rounded=1;whiteSpace=wrap;html=1;strokeWidth=1;fillColor=#007FFF;" parent="1" vertex="1">
          <mxGeometry x="660" y="302.5" width="15.78" height="14" as="geometry" />
        </mxCell>
        <mxCell id="dn0NIBnzIPIcyW35OSL4-79" value="" style="shape=image;html=1;verticalAlign=top;verticalLabelPosition=bottom;labelBackgroundColor=#ffffff;imageAspect=0;aspect=fixed;image=https://cdn1.iconfinder.com/data/icons/ios-11-glyphs/30/visible-128.png;strokeColor=#000000;strokeWidth=1;fillColor=#000000;gradientColor=none;" parent="1" vertex="1">
          <mxGeometry x="798" y="304" width="14" height="14" as="geometry" />
        </mxCell>
        <mxCell id="dn0NIBnzIPIcyW35OSL4-80" value="&lt;b&gt;Label 4&lt;/b&gt;" style="text;html=1;strokeColor=none;fillColor=none;align=center;verticalAlign=middle;whiteSpace=wrap;rounded=0;" parent="1" vertex="1">
          <mxGeometry x="675.78" y="299.5" width="60" height="20" as="geometry" />
        </mxCell>
        <mxCell id="dn0NIBnzIPIcyW35OSL4-81" value="" style="rounded=0;whiteSpace=wrap;html=1;strokeWidth=1;fillColor=#f5f5f5;fontColor=#333333;" parent="1" vertex="1">
          <mxGeometry x="649.45" y="328" width="170.55" height="37" as="geometry" />
        </mxCell>
        <mxCell id="dn0NIBnzIPIcyW35OSL4-82" value="" style="rounded=1;whiteSpace=wrap;html=1;strokeWidth=1;fillColor=#7F00FF;" parent="1" vertex="1">
          <mxGeometry x="660" y="339.5" width="15.78" height="14" as="geometry" />
        </mxCell>
        <mxCell id="dn0NIBnzIPIcyW35OSL4-83" value="" style="shape=image;html=1;verticalAlign=top;verticalLabelPosition=bottom;labelBackgroundColor=#ffffff;imageAspect=0;aspect=fixed;image=https://cdn1.iconfinder.com/data/icons/ios-11-glyphs/30/visible-128.png;strokeColor=#000000;strokeWidth=1;fillColor=#000000;gradientColor=none;" parent="1" vertex="1">
          <mxGeometry x="798" y="341" width="14" height="14" as="geometry" />
        </mxCell>
        <mxCell id="dn0NIBnzIPIcyW35OSL4-84" value="&lt;b&gt;Label 5&lt;/b&gt;" style="text;html=1;strokeColor=none;fillColor=none;align=center;verticalAlign=middle;whiteSpace=wrap;rounded=0;" parent="1" vertex="1">
          <mxGeometry x="675.78" y="336.5" width="60" height="20" as="geometry" />
        </mxCell>
        <mxCell id="dn0NIBnzIPIcyW35OSL4-85" value="" style="rounded=0;whiteSpace=wrap;html=1;strokeWidth=1;fontColor=#333333;fillColor=#E8E8E8;" parent="1" vertex="1">
          <mxGeometry x="649.45" y="365" width="170.55" height="37" as="geometry" />
        </mxCell>
        <mxCell id="dn0NIBnzIPIcyW35OSL4-86" value="" style="rounded=1;whiteSpace=wrap;html=1;strokeWidth=1;fillColor=#67AB9F;" parent="1" vertex="1">
          <mxGeometry x="660" y="376.5" width="15.78" height="14" as="geometry" />
        </mxCell>
        <mxCell id="dn0NIBnzIPIcyW35OSL4-87" value="" style="shape=image;html=1;verticalAlign=top;verticalLabelPosition=bottom;labelBackgroundColor=#ffffff;imageAspect=0;aspect=fixed;image=https://cdn1.iconfinder.com/data/icons/ios-11-glyphs/30/visible-128.png;strokeColor=#000000;strokeWidth=1;fillColor=#000000;gradientColor=none;" parent="1" vertex="1">
          <mxGeometry x="798" y="378" width="14" height="14" as="geometry" />
        </mxCell>
        <mxCell id="dn0NIBnzIPIcyW35OSL4-88" value="&lt;b&gt;Label 6&lt;/b&gt;" style="text;html=1;strokeColor=none;fillColor=none;align=center;verticalAlign=middle;whiteSpace=wrap;rounded=0;" parent="1" vertex="1">
          <mxGeometry x="675.78" y="373.5" width="60" height="20" as="geometry" />
        </mxCell>
        <mxCell id="dn0NIBnzIPIcyW35OSL4-89" value="" style="rounded=0;whiteSpace=wrap;html=1;strokeWidth=1;fillColor=#f5f5f5;fontColor=#333333;" parent="1" vertex="1">
          <mxGeometry x="649.45" y="402" width="170.55" height="37" as="geometry" />
        </mxCell>
        <mxCell id="dn0NIBnzIPIcyW35OSL4-90" value="" style="rounded=1;whiteSpace=wrap;html=1;strokeWidth=1;fillColor=#FF8000;" parent="1" vertex="1">
          <mxGeometry x="660" y="413.5" width="15.78" height="14" as="geometry" />
        </mxCell>
        <mxCell id="dn0NIBnzIPIcyW35OSL4-91" value="" style="shape=image;html=1;verticalAlign=top;verticalLabelPosition=bottom;labelBackgroundColor=#ffffff;imageAspect=0;aspect=fixed;image=https://cdn1.iconfinder.com/data/icons/ios-11-glyphs/30/visible-128.png;strokeColor=#000000;strokeWidth=1;fillColor=#000000;gradientColor=none;" parent="1" vertex="1">
          <mxGeometry x="798" y="415" width="14" height="14" as="geometry" />
        </mxCell>
        <mxCell id="dn0NIBnzIPIcyW35OSL4-92" value="&lt;b&gt;Label 7&lt;/b&gt;" style="text;html=1;strokeColor=none;fillColor=none;align=center;verticalAlign=middle;whiteSpace=wrap;rounded=0;" parent="1" vertex="1">
          <mxGeometry x="675.78" y="410.5" width="60" height="20" as="geometry" />
        </mxCell>
        <mxCell id="dn0NIBnzIPIcyW35OSL4-97" value="&lt;b&gt;&lt;font style=&quot;font-size: 14px&quot;&gt;Pangolin&lt;/font&gt;&lt;/b&gt;" style="text;html=1;strokeColor=none;fillColor=none;align=center;verticalAlign=middle;whiteSpace=wrap;rounded=0;" parent="1" vertex="1">
          <mxGeometry x="322" y="90" width="40" height="20" as="geometry" />
        </mxCell>
        <mxCell id="dn0NIBnzIPIcyW35OSL4-98" value="&lt;b&gt;Save Masks&lt;/b&gt;" style="text;html=1;strokeColor=none;fillColor=none;align=center;verticalAlign=middle;whiteSpace=wrap;rounded=0;" parent="1" vertex="1">
          <mxGeometry x="723" y="144.01" width="78" height="10" as="geometry" />
        </mxCell>
        <mxCell id="dn0NIBnzIPIcyW35OSL4-99" value="&lt;b&gt;Open Folder&lt;/b&gt;" style="text;html=1;strokeColor=none;fillColor=none;align=center;verticalAlign=middle;whiteSpace=wrap;rounded=0;" parent="1" vertex="1">
          <mxGeometry x="615" y="144.01" width="78" height="10" as="geometry" />
        </mxCell>
        <mxCell id="dn0NIBnzIPIcyW35OSL4-100" value="&lt;b&gt;Preferences&lt;/b&gt;" style="text;html=1;strokeColor=none;fillColor=none;align=center;verticalAlign=middle;whiteSpace=wrap;rounded=0;" parent="1" vertex="1">
          <mxGeometry x="-109" y="144.01" width="78" height="10" as="geometry" />
        </mxCell>
        <mxCell id="dn0NIBnzIPIcyW35OSL4-102" value="&lt;b&gt;Run Inference&lt;/b&gt;" style="text;html=1;strokeColor=none;fillColor=none;align=center;verticalAlign=middle;whiteSpace=wrap;rounded=0;" parent="1" vertex="1">
          <mxGeometry x="470" y="142.63" width="100" height="10" as="geometry" />
        </mxCell>
        <mxCell id="dn0NIBnzIPIcyW35OSL4-103" value="" style="pointerEvents=1;shadow=0;dashed=0;html=1;strokeColor=none;labelPosition=center;verticalLabelPosition=bottom;verticalAlign=top;outlineConnect=0;align=center;shape=mxgraph.office.concepts.video_play;fillColor=#000000;" parent="1" vertex="1">
          <mxGeometry x="504.21" y="112" width="31.57" height="25.26" as="geometry" />
        </mxCell>
        <mxCell id="dn0NIBnzIPIcyW35OSL4-105" value="" style="triangle;whiteSpace=wrap;html=1;rotation=90;strokeColor=none;fillColor=#333333;" parent="1" vertex="1">
          <mxGeometry x="566" y="145.01" width="6" height="8" as="geometry" />
        </mxCell>
        <mxCell id="dn0NIBnzIPIcyW35OSL4-108" value="" style="rounded=1;whiteSpace=wrap;html=1;strokeWidth=1;fillColor=#f5f5f5;strokeColor=#666666;fontColor=#333333;arcSize=4;" parent="1" vertex="1">
          <mxGeometry x="-174" y="760" width="390" height="207" as="geometry" />
        </mxCell>
        <mxCell id="dn0NIBnzIPIcyW35OSL4-109" value="" style="rounded=0;whiteSpace=wrap;html=1;strokeWidth=1;" parent="1" vertex="1">
          <mxGeometry x="-59" y="804.5" width="260" height="35" as="geometry" />
        </mxCell>
        <mxCell id="dn0NIBnzIPIcyW35OSL4-110" value="&lt;b&gt;PKL Model File&lt;/b&gt;" style="text;html=1;strokeColor=none;fillColor=none;align=left;verticalAlign=middle;whiteSpace=wrap;rounded=0;" parent="1" vertex="1">
          <mxGeometry x="-164" y="812" width="100" height="20" as="geometry" />
        </mxCell>
        <mxCell id="dn0NIBnzIPIcyW35OSL4-111" value="&lt;b&gt;&lt;font style=&quot;font-size: 14px&quot;&gt;Run Inference&lt;/font&gt;&lt;/b&gt;" style="text;html=1;strokeColor=none;fillColor=none;align=center;verticalAlign=middle;whiteSpace=wrap;rounded=0;" parent="1" vertex="1">
          <mxGeometry x="-14" y="769" width="110" height="20" as="geometry" />
        </mxCell>
        <mxCell id="dn0NIBnzIPIcyW35OSL4-112" value="&lt;b&gt;Activate model only on selected slice(s)?&lt;/b&gt;" style="text;html=1;strokeColor=none;fillColor=none;align=left;verticalAlign=middle;whiteSpace=wrap;rounded=0;" parent="1" vertex="1">
          <mxGeometry x="-164" y="915" width="240" as="geometry" />
        </mxCell>
        <mxCell id="dn0NIBnzIPIcyW35OSL4-113" value="&lt;span style=&quot;color: rgb(60 , 64 , 67) ; font-family: &amp;#34;arial&amp;#34; , sans-serif ; font-size: 14px ; text-align: left ; background-color: rgb(255 , 255 , 255)&quot;&gt;&lt;b&gt;✓&lt;/b&gt;&lt;/span&gt;" style="rounded=0;whiteSpace=wrap;html=1;strokeWidth=1;" parent="1" vertex="1">
          <mxGeometry x="86" y="906" width="20" height="20" as="geometry" />
        </mxCell>
        <mxCell id="dn0NIBnzIPIcyW35OSL4-114" value="&lt;b&gt;1, 2, 3, 4, 5, 6, 7....&lt;/b&gt;" style="rounded=0;whiteSpace=wrap;html=1;strokeWidth=1;" parent="1" vertex="1">
          <mxGeometry x="-59" y="855.66" width="260" height="35" as="geometry" />
        </mxCell>
        <mxCell id="dn0NIBnzIPIcyW35OSL4-115" value="&lt;b&gt;Include masks&lt;/b&gt;" style="text;html=1;strokeColor=none;fillColor=none;align=left;verticalAlign=middle;whiteSpace=wrap;rounded=0;" parent="1" vertex="1">
          <mxGeometry x="-164" y="863.16" width="100" height="20" as="geometry" />
        </mxCell>
        <mxCell id="dn0NIBnzIPIcyW35OSL4-116" value="&lt;b&gt;Run&lt;/b&gt;" style="rounded=1;whiteSpace=wrap;html=1;strokeWidth=1;fillColor=#d5e8d4;" parent="1" vertex="1">
          <mxGeometry x="-104" y="943" width="110" height="14" as="geometry" />
        </mxCell>
        <mxCell id="dn0NIBnzIPIcyW35OSL4-117" value="&lt;b&gt;Cancel&lt;/b&gt;" style="rounded=1;whiteSpace=wrap;html=1;strokeWidth=1;fillColor=#f8cecc;" parent="1" vertex="1">
          <mxGeometry x="36" y="943" width="110" height="14" as="geometry" />
        </mxCell>
        <mxCell id="dn0NIBnzIPIcyW35OSL4-118" value="" style="rounded=0;whiteSpace=wrap;html=1;fillColor=#f5f5f5;strokeColor=#666666;fontColor=#333333;" parent="1" vertex="1">
          <mxGeometry x="285" y="760" width="725" height="410" as="geometry" />
        </mxCell>
        <mxCell id="dn0NIBnzIPIcyW35OSL4-119" value="" style="ellipse;whiteSpace=wrap;html=1;aspect=fixed;fillColor=#EA6B66;strokeColor=#999999;" parent="1" vertex="1">
          <mxGeometry x="296" y="768" width="14" height="14" as="geometry" />
        </mxCell>
        <mxCell id="dn0NIBnzIPIcyW35OSL4-120" value="" style="ellipse;whiteSpace=wrap;html=1;aspect=fixed;fillColor=#FFD966;strokeColor=#999999;" parent="1" vertex="1">
          <mxGeometry x="320" y="768" width="14" height="14" as="geometry" />
        </mxCell>
        <mxCell id="dn0NIBnzIPIcyW35OSL4-121" value="" style="ellipse;whiteSpace=wrap;html=1;aspect=fixed;fillColor=#97D077;strokeColor=#999999;" parent="1" vertex="1">
          <mxGeometry x="344" y="768" width="14" height="14" as="geometry" />
        </mxCell>
        <mxCell id="dn0NIBnzIPIcyW35OSL4-122" value="" style="whiteSpace=wrap;html=1;aspect=fixed;strokeWidth=1;fillColor=#fff2cc;" parent="1" vertex="1">
          <mxGeometry x="310" y="839.5" width="294" height="294" as="geometry" />
        </mxCell>
        <mxCell id="dn0NIBnzIPIcyW35OSL4-123" value="" style="whiteSpace=wrap;html=1;aspect=fixed;strokeWidth=1;fillColor=#fff2cc;" parent="1" vertex="1">
          <mxGeometry x="680" y="839.5" width="294" height="294" as="geometry" />
        </mxCell>
        <mxCell id="dn0NIBnzIPIcyW35OSL4-125" value="" style="rounded=0;whiteSpace=wrap;html=1;fontColor=#333333;fillColor=#CCCCCC;" parent="1" vertex="1">
          <mxGeometry x="-190" y="660" width="1010" height="20" as="geometry" />
        </mxCell>
        <mxCell id="dn0NIBnzIPIcyW35OSL4-126" value="" style="html=1;verticalLabelPosition=bottom;labelBackgroundColor=#ffffff;verticalAlign=top;shadow=0;dashed=0;strokeWidth=2;shape=mxgraph.ios7.misc.loading_circle;gradientColor=none;fillColor=#000000;" parent="1" vertex="1">
          <mxGeometry x="798" y="660" width="20" height="19" as="geometry" />
        </mxCell>
        <mxCell id="dn0NIBnzIPIcyW35OSL4-127" value="&lt;b&gt;Running inference...&lt;/b&gt;" style="text;html=1;strokeColor=none;fillColor=none;align=center;verticalAlign=middle;whiteSpace=wrap;rounded=0;" parent="1" vertex="1">
          <mxGeometry x="669" y="660" width="128" height="20" as="geometry" />
        </mxCell>
        <mxCell id="dn0NIBnzIPIcyW35OSL4-128" value="" style="triangle;whiteSpace=wrap;html=1;rotation=90;strokeColor=none;fillColor=#333333;" parent="1" vertex="1">
          <mxGeometry x="801" y="146.01" width="6" height="8" as="geometry" />
        </mxCell>
        <mxCell id="7BR2_aaGMWE1Ctq6u14p-1" value="&lt;b&gt;File Tab&lt;/b&gt;" style="rounded=0;whiteSpace=wrap;html=1;fillColor=#f5f5f5;strokeColor=#666666;fontColor=#333333;" vertex="1" parent="1">
          <mxGeometry x="-800" y="108.5" width="550" height="20" as="geometry" />
        </mxCell>
        <mxCell id="7BR2_aaGMWE1Ctq6u14p-10" style="edgeStyle=orthogonalEdgeStyle;rounded=0;orthogonalLoop=1;jettySize=auto;html=1;exitX=0.5;exitY=1;exitDx=0;exitDy=0;" edge="1" parent="1" source="7BR2_aaGMWE1Ctq6u14p-2">
          <mxGeometry relative="1" as="geometry">
            <mxPoint x="-690" y="358.5" as="targetPoint" />
          </mxGeometry>
        </mxCell>
        <mxCell id="7BR2_aaGMWE1Ctq6u14p-2" value="&lt;b&gt;QStandardItemModel&lt;/b&gt;" style="rounded=0;whiteSpace=wrap;html=1;fillColor=#ffe6cc;strokeColor=#d79b00;" vertex="1" parent="1">
          <mxGeometry x="-755" y="260.5" width="130" height="28.34" as="geometry" />
        </mxCell>
        <mxCell id="7BR2_aaGMWE1Ctq6u14p-3" value="&lt;b&gt;QTreeView&lt;/b&gt;" style="rounded=0;whiteSpace=wrap;html=1;fillColor=#f8cecc;strokeColor=#b85450;" vertex="1" parent="1">
          <mxGeometry x="-680" y="197.4999999999999" width="130" height="28.34" as="geometry" />
        </mxCell>
        <mxCell id="7BR2_aaGMWE1Ctq6u14p-4" value="&lt;b&gt;GraphicsView&lt;/b&gt;" style="rounded=0;whiteSpace=wrap;html=1;fillColor=#e1d5e7;strokeColor=#9673a6;" vertex="1" parent="1">
          <mxGeometry x="-500" y="195.84000000000003" width="130" height="28.34" as="geometry" />
        </mxCell>
        <mxCell id="7BR2_aaGMWE1Ctq6u14p-5" value="&lt;b&gt;GraphicsScene&lt;/b&gt;" style="rounded=0;whiteSpace=wrap;html=1;fillColor=#fff2cc;strokeColor=#d6b656;" vertex="1" parent="1">
          <mxGeometry x="-415" y="259.84000000000003" width="130" height="28.34" as="geometry" />
        </mxCell>
        <mxCell id="7BR2_aaGMWE1Ctq6u14p-8" value="&lt;b&gt;&lt;u&gt;Model-View Land&lt;/u&gt;&lt;/b&gt;" style="text;html=1;strokeColor=none;fillColor=none;align=center;verticalAlign=middle;whiteSpace=wrap;rounded=0;" vertex="1" parent="1">
          <mxGeometry x="-720" y="148.5" width="110" height="20" as="geometry" />
        </mxCell>
        <mxCell id="7BR2_aaGMWE1Ctq6u14p-9" value="&lt;b&gt;&lt;u&gt;Graphics-View Land&lt;/u&gt;&lt;/b&gt;" style="text;html=1;strokeColor=none;fillColor=none;align=center;verticalAlign=middle;whiteSpace=wrap;rounded=0;" vertex="1" parent="1">
          <mxGeometry x="-442.5" y="148.5" width="135" height="20" as="geometry" />
        </mxCell>
        <mxCell id="7BR2_aaGMWE1Ctq6u14p-11" value="&lt;b&gt;StandardItem&lt;/b&gt;" style="rounded=0;whiteSpace=wrap;html=1;fillColor=#ffe6cc;strokeColor=#d79b00;" vertex="1" parent="1">
          <mxGeometry x="-740" y="368.5" width="100" height="14" as="geometry" />
        </mxCell>
        <mxCell id="7BR2_aaGMWE1Ctq6u14p-14" value="&lt;b&gt;StandardItem&lt;/b&gt;" style="rounded=0;whiteSpace=wrap;html=1;fillColor=#ffe6cc;strokeColor=#d79b00;" vertex="1" parent="1">
          <mxGeometry x="-740" y="395.5" width="100" height="14" as="geometry" />
        </mxCell>
        <mxCell id="7BR2_aaGMWE1Ctq6u14p-15" value="&lt;b&gt;StandardItem&lt;/b&gt;" style="rounded=0;whiteSpace=wrap;html=1;fillColor=#ffe6cc;strokeColor=#d79b00;" vertex="1" parent="1">
          <mxGeometry x="-740" y="421.5" width="100" height="14" as="geometry" />
        </mxCell>
        <mxCell id="7BR2_aaGMWE1Ctq6u14p-17" value="&lt;b&gt;...&lt;/b&gt;" style="rounded=0;whiteSpace=wrap;html=1;fillColor=#ffe6cc;strokeColor=#d79b00;" vertex="1" parent="1">
          <mxGeometry x="-740" y="448.5" width="100" height="14" as="geometry" />
        </mxCell>
        <mxCell id="7BR2_aaGMWE1Ctq6u14p-18" value="&lt;b&gt;GraphicsItem&lt;/b&gt;" style="rounded=0;whiteSpace=wrap;html=1;fillColor=#fff2cc;strokeColor=#d6b656;" vertex="1" parent="1">
          <mxGeometry x="-400" y="368.5" width="100" height="14" as="geometry" />
        </mxCell>
        <mxCell id="7BR2_aaGMWE1Ctq6u14p-19" value="&lt;b&gt;GraphicsItem&lt;/b&gt;" style="rounded=0;whiteSpace=wrap;html=1;fillColor=#fff2cc;strokeColor=#d6b656;" vertex="1" parent="1">
          <mxGeometry x="-400" y="395.5" width="100" height="14" as="geometry" />
        </mxCell>
        <mxCell id="7BR2_aaGMWE1Ctq6u14p-20" value="&lt;b&gt;GraphicsItem&lt;/b&gt;" style="rounded=0;whiteSpace=wrap;html=1;fillColor=#fff2cc;strokeColor=#d6b656;" vertex="1" parent="1">
          <mxGeometry x="-400" y="421.5" width="100" height="14" as="geometry" />
        </mxCell>
        <mxCell id="7BR2_aaGMWE1Ctq6u14p-21" value="&lt;b&gt;...&lt;/b&gt;" style="rounded=0;whiteSpace=wrap;html=1;fillColor=#fff2cc;strokeColor=#d6b656;" vertex="1" parent="1">
          <mxGeometry x="-400" y="448.5" width="100" height="14" as="geometry" />
        </mxCell>
        <mxCell id="7BR2_aaGMWE1Ctq6u14p-22" value="&lt;b&gt;⟶&amp;nbsp;&lt;/b&gt;&lt;b&gt;Item map ⟵&amp;nbsp;&lt;/b&gt;" style="rounded=1;whiteSpace=wrap;html=1;strokeColor=#6c8ebf;fillColor=#dae8fc;arcSize=0;" vertex="1" parent="1">
          <mxGeometry x="-618" y="402.75" width="188.5" height="24.5" as="geometry" />
        </mxCell>
        <mxCell id="7BR2_aaGMWE1Ctq6u14p-33" value="&lt;h1&gt;Rules&lt;/h1&gt;&lt;p&gt;&lt;/p&gt;&lt;ul&gt;&lt;li&gt;No direct couplings between model-view land and graphics-view land except through item-map.&lt;/li&gt;&lt;li&gt;Creation/deletion of items must be handled in parent (tab)&lt;/li&gt;&lt;li&gt;Standarditem must be stored in item map as hashable QPersistent model index&lt;/li&gt;&lt;/ul&gt;&lt;p&gt;&lt;/p&gt;" style="text;html=1;strokeColor=none;fillColor=none;spacing=5;spacingTop=-20;whiteSpace=wrap;overflow=hidden;rounded=0;" vertex="1" parent="1">
          <mxGeometry x="-800" y="498.5" width="325" height="160" as="geometry" />
        </mxCell>
      </root>
    </mxGraphModel>
  </diagram>
</mxfile>
